<svg xmlns="http://www.w3.org/2000/svg" viewBox="0 0 512 512" width="512" height="512">
  <defs>
    <!-- Dégradé de la bordure : émeraude/teal vers ambre doré -->
    <linearGradient id="brandBorder" x1="0%" y1="100%" x2="100%" y2="0%">
      <stop offset="0%" stop-color="#059669" />
      <stop offset="35%" stop-color="#10b981" />
      <stop offset="70%" stop-color="#14b8a6" />
      <stop offset="100%" stop-color="#f59e0b" />
    </linearGradient>

    <!-- Ombre douce sous l'icône -->
    <filter id="cardShadow" x="-10%" y="-10%" width="125%" height="125%" filterUnits="userSpaceOnUse">
      <feDropShadow dx="0" dy="10.24" stdDeviation="15.36" flood-color="#059669" flood-opacity="0.22" />
      <feDropShadow dx="0" dy="20.48" stdDeviation="30.72" flood-color="#000000" flood-opacity="0.12" />
    </filter>

    <!-- Dégradé interne pour le relief du portefeuille -->
    <linearGradient id="walletStroke" x1="0%" y1="0%" x2="100%" y2="100%">
      <stop offset="0%" stop-color="#059669" />
      <stop offset="100%" stop-color="#10b981" />
    </linearGradient>
  </defs>

  <!-- Fond plein pour maskable icon (safe-area 80% pour Android/Samsung/Pixel) -->
  

  <!-- Conteneur externe de l'icône avec dégradé -->
  <g filter="url(#cardShadow)">
    <!-- Rectangle de bordure dégradée -->
    <rect 
      x="20.48" 
      y="20.48" 
      width="471.04" 
      height="471.04" 
      rx="122.47040000000001" 
      ry="122.47040000000001" 
      fill="url(#brandBorder)" 
    />
    
    <!-- Rectangle intérieur blanc pur (laisse apparaître le dégradé comme bordure de 4.5%) -->
    <rect 
      x="41.6768" 
      y="41.6768" 
      width="428.6464" 
      height="428.6464" 
      rx="107.77395200000001" 
      ry="107.77395200000001" 
      fill="#ffffff" 
    />
  </g>

  <!-- Symbole du portefeuille au centre (lucide wallet tracé précis et épuré) -->
  <g transform="translate(256, 256) scale(10.36288) translate(-12, -12)">
    <!-- Tracé du portefeuille -->
    <path 
      d="M19 7V4a1 1 0 0 0-1-1H5a2 2 0 0 0 0 4h15a1 1 0 0 1 1 1v4h-3a2 2 0 0 0 0 4h3a1 1 0 0 0 1-1v-2a1 1 0 0 0-1-1" 
      fill="none" 
      stroke="url(#walletStroke)" 
      stroke-width="2.1" 
      stroke-linecap="round" 
      stroke-linejoin="round" 
    />
    <path 
      d="M3 5v14a2 2 0 0 0 2 2h15a1 1 0 0 0 1-1v-4" 
      fill="none" 
      stroke="url(#walletStroke)" 
      stroke-width="2.1" 
      stroke-linecap="round" 
      stroke-linejoin="round" 
    />
    <!-- Bouton/fermoir du rabat -->
    <circle cx="16.5" cy="12.5" r="0.75" fill="#10b981" />
  </g>
</svg>